<svg width="45" height="45" viewBox="0 0 45 45" fill="none" xmlns="http://www.w3.org/2000/svg">
<path d="M9.26646 14.6975C9.39308 14.5706 9.54351 14.4699 9.70913 14.4011C9.87474 14.3324 10.0523 14.297 10.2316 14.297C10.4109 14.297 10.5884 14.3324 10.7541 14.4011C10.9197 14.4699 11.0701 14.5706 11.1967 14.6975L22.5003 26.0039L33.8039 14.6975C34.0599 14.4416 34.4071 14.2978 34.7691 14.2978C35.1311 14.2978 35.4782 14.4416 35.7342 14.6975C35.9902 14.9535 36.134 15.3007 36.134 15.6627C36.134 16.0247 35.9902 16.3718 35.7342 16.6278L23.4655 28.8966C23.3388 29.0235 23.1884 29.1242 23.0228 29.1929C22.8572 29.2617 22.6796 29.297 22.5003 29.297C22.321 29.297 22.1435 29.2617 21.9779 29.1929C21.8123 29.1242 21.6618 29.0235 21.5352 28.8966L9.26646 16.6278C9.13951 16.5012 9.03879 16.3508 8.97006 16.1851C8.90134 16.0195 8.86597 15.842 8.86597 15.6627C8.86597 15.4834 8.90134 15.3058 8.97006 15.1402C9.03879 14.9746 9.13951 14.8242 9.26646 14.6975Z" fill="#171714"/>
</svg>
